<svg id="svg" version="1.1" xmlns="http://www.w3.org/2000/svg" xmlns:xlink="http://www.w3.org/1999/xlink" width="400" height="74.66666666666667" viewBox="0, 0, 400,74.66666666666667"><g id="svgg"><path id="path0" d="M49.606 0.252 C 49.553 0.390,49.417 0.484,49.304 0.460 C 49.191 0.436,49.095 0.529,49.091 0.667 C 49.087 0.804,48.915 0.941,48.708 0.970 C 48.477 1.003,48.333 1.139,48.333 1.325 C 48.333 1.492,48.183 1.667,48.000 1.715 C 47.817 1.763,47.667 1.922,47.667 2.068 C 47.667 2.214,47.592 2.333,47.500 2.333 C 47.408 2.333,47.333 2.413,47.333 2.510 C 47.333 2.607,47.427 2.632,47.542 2.566 C 47.656 2.500,47.592 2.627,47.400 2.848 C 47.207 3.069,47.003 3.382,46.946 3.543 C 46.889 3.704,46.750 3.817,46.637 3.793 C 46.524 3.769,46.428 3.835,46.424 3.939 C 46.415 4.177,45.675 4.910,45.311 5.042 C 45.120 5.112,45.037 5.353,45.030 5.859 C 45.024 6.254,44.940 6.603,44.842 6.636 C 44.745 6.668,44.707 6.764,44.759 6.848 C 44.919 7.108,44.720 7.015,44.479 6.718 C 44.323 6.526,44.317 6.476,44.458 6.561 C 44.573 6.630,44.667 6.613,44.667 6.524 C 44.667 6.428,43.661 6.354,42.167 6.343 L 39.667 6.323 39.667 6.726 C 39.667 7.008,39.579 7.123,39.375 7.106 C 39.215 7.094,39.083 7.196,39.083 7.333 C 39.083 7.471,38.933 7.624,38.750 7.673 C 38.507 7.739,38.403 7.930,38.365 8.382 C 38.325 8.856,38.241 9.000,38.002 9.000 C 37.805 9.000,37.670 9.139,37.637 9.375 C 37.607 9.581,37.471 9.750,37.333 9.750 C 37.196 9.750,37.074 9.844,37.063 9.958 C 37.051 10.073,37.032 10.233,37.021 10.315 C 37.009 10.396,36.869 10.453,36.708 10.440 C 36.548 10.427,36.417 10.529,36.417 10.667 C 36.417 10.804,36.267 10.957,36.083 11.007 C 35.840 11.072,35.736 11.263,35.698 11.715 C 35.659 12.189,35.574 12.333,35.335 12.333 C 35.139 12.333,35.003 12.472,34.970 12.708 C 34.941 12.915,34.804 13.083,34.667 13.083 C 34.529 13.083,34.407 13.177,34.396 13.292 C 34.384 13.406,34.366 13.567,34.354 13.648 C 34.343 13.730,34.202 13.786,34.042 13.773 C 33.881 13.760,33.750 13.862,33.750 14.000 C 33.750 14.137,33.600 14.290,33.417 14.340 C 33.173 14.406,33.069 14.597,33.032 15.048 C 32.992 15.523,32.907 15.667,32.668 15.667 C 32.472 15.667,32.337 15.805,32.303 16.042 C 32.274 16.248,32.137 16.417,32.000 16.417 C 31.863 16.417,31.741 16.510,31.729 16.625 C 31.718 16.740,31.699 16.900,31.688 16.981 C 31.676 17.063,31.535 17.119,31.375 17.106 C 31.215 17.094,31.083 17.196,31.083 17.333 C 31.083 17.471,30.933 17.624,30.750 17.673 C 30.507 17.739,30.403 17.930,30.365 18.382 C 30.325 18.856,30.241 19.000,30.002 19.000 C 29.805 19.000,29.670 19.139,29.637 19.375 C 29.607 19.581,29.471 19.750,29.333 19.750 C 29.196 19.750,29.074 19.844,29.063 19.958 C 29.051 20.073,29.032 20.233,29.021 20.315 C 29.009 20.396,28.869 20.453,28.708 20.440 C 28.548 20.427,28.417 20.529,28.417 20.667 C 28.417 20.804,28.267 20.957,28.083 21.007 C 27.840 21.072,27.736 21.263,27.698 21.715 C 27.659 22.189,27.574 22.333,27.335 22.333 C 27.139 22.333,27.003 22.472,26.970 22.708 C 26.941 22.915,26.804 23.083,26.667 23.083 C 26.529 23.083,26.407 23.177,26.396 23.292 C 26.384 23.406,26.366 23.567,26.354 23.648 C 26.343 23.730,26.202 23.786,26.042 23.773 C 25.859 23.759,25.759 23.859,25.773 24.042 C 25.789 24.245,25.675 24.333,25.398 24.333 C 25.053 24.333,24.935 24.193,24.969 23.825 C 24.974 23.775,24.704 23.715,24.369 23.692 C 24.023 23.669,23.630 23.511,23.457 23.326 C 23.290 23.147,22.978 23.000,22.763 23.000 C 22.512 23.000,22.341 22.880,22.285 22.667 C 22.219 22.414,22.058 22.333,21.618 22.333 C 21.179 22.333,21.018 22.253,20.952 22.000 C 20.874 21.704,20.724 21.667,19.599 21.667 C 18.444 21.667,18.333 21.696,18.333 22.000 C 18.333 22.229,18.216 22.339,17.958 22.353 C 17.161 22.393,17.084 22.426,17.106 22.708 C 17.119 22.869,17.063 23.009,16.981 23.021 C 16.900 23.032,16.740 23.051,16.625 23.063 C 16.510 23.074,16.417 23.193,16.417 23.327 C 16.417 23.469,16.183 23.617,15.853 23.685 C 15.544 23.748,15.226 23.901,15.148 24.025 C 15.024 24.219,14.941 24.126,14.969 23.825 C 14.974 23.775,14.704 23.715,14.369 23.692 C 14.023 23.669,13.630 23.511,13.457 23.326 C 13.031 22.868,12.056 22.893,11.526 23.375 C 11.299 23.581,11.167 23.656,11.233 23.542 C 11.299 23.427,11.274 23.333,11.177 23.333 C 11.079 23.333,11.000 23.400,11.000 23.481 C 11.000 23.562,10.844 23.668,10.654 23.718 C 10.445 23.773,10.321 23.929,10.340 24.113 C 10.466 25.323,10.321 26.462,10.042 26.440 C 9.631 26.407,9.496 31.020,9.895 31.419 C 10.167 31.691,10.408 31.755,10.260 31.516 C 10.208 31.432,10.353 31.451,10.582 31.557 C 10.810 31.663,10.998 31.881,10.999 32.042 C 10.999 32.216,11.127 32.333,11.314 32.333 C 11.488 32.333,11.667 32.482,11.715 32.667 C 11.782 32.922,11.942 33.000,12.401 33.000 C 12.889 33.000,13.000 33.062,13.000 33.333 C 13.000 33.611,13.111 33.667,13.667 33.667 C 14.222 33.667,14.333 33.722,14.333 34.000 C 14.333 34.215,14.444 34.333,14.647 34.333 C 14.821 34.333,15.000 34.482,15.048 34.667 C 15.115 34.922,15.276 35.000,15.734 35.000 C 16.222 35.000,16.333 35.062,16.333 35.333 C 16.333 35.611,16.444 35.667,17.000 35.667 C 17.556 35.667,17.667 35.722,17.667 36.000 C 17.667 36.215,17.778 36.333,17.981 36.333 C 18.154 36.333,18.333 36.482,18.382 36.667 C 18.448 36.922,18.609 37.000,19.068 37.000 C 19.556 37.000,19.667 37.062,19.667 37.333 C 19.667 37.611,19.778 37.667,20.333 37.667 C 20.889 37.667,21.000 37.722,21.000 38.000 C 21.000 38.215,21.111 38.333,21.314 38.333 C 21.488 38.333,21.667 38.482,21.715 38.667 C 21.815 39.048,26.000 39.201,26.000 38.823 C 26.000 38.726,25.925 38.693,25.833 38.750 C 25.562 38.918,25.643 38.726,25.949 38.479 C 26.140 38.323,26.191 38.317,26.105 38.458 C 26.037 38.573,26.060 38.667,26.157 38.667 C 26.254 38.667,26.333 38.600,26.333 38.519 C 26.333 38.438,26.483 38.333,26.667 38.285 C 26.850 38.237,27.000 38.087,27.000 37.952 C 27.000 37.816,27.150 37.666,27.333 37.618 C 27.517 37.570,27.667 37.412,27.667 37.266 C 27.667 37.027,27.859 36.925,28.208 36.980 C 28.277 36.991,28.324 36.944,28.314 36.875 C 28.255 36.506,28.368 36.333,28.667 36.333 C 28.889 36.333,29.000 36.222,29.000 36.000 C 29.000 35.817,29.089 35.667,29.198 35.667 C 29.306 35.667,29.581 35.498,29.808 35.292 C 30.035 35.085,30.166 35.010,30.100 35.125 C 30.034 35.240,30.060 35.333,30.157 35.333 C 30.254 35.333,30.333 35.267,30.333 35.186 C 30.333 35.105,30.483 35.000,30.667 34.952 C 30.850 34.904,31.000 34.754,31.000 34.618 C 31.000 34.085,32.912 34.145,33.052 34.683 C 33.147 35.046,36.000 35.182,36.000 34.823 C 36.000 34.726,35.925 34.693,35.833 34.750 C 35.562 34.918,35.643 34.726,35.949 34.479 C 36.140 34.323,36.191 34.317,36.105 34.458 C 35.936 34.740,36.135 34.722,36.429 34.429 C 36.701 34.156,36.748 33.930,36.500 34.083 C 36.229 34.251,36.310 34.060,36.615 33.812 C 36.807 33.657,36.857 33.650,36.772 33.792 C 36.703 33.906,36.726 34.000,36.823 34.000 C 36.921 34.000,37.000 33.934,37.000 33.853 C 37.000 33.772,37.150 33.666,37.333 33.618 C 37.517 33.570,37.667 33.420,37.667 33.285 C 37.667 33.150,37.817 33.000,38.000 32.952 C 38.183 32.904,38.333 32.745,38.333 32.599 C 38.333 32.331,38.506 32.283,39.417 32.296 C 40.979 32.320,41.000 32.325,41.000 32.667 C 41.000 32.943,41.111 33.000,41.647 33.000 C 42.154 33.000,42.313 33.072,42.382 33.333 C 42.516 33.846,45.667 33.846,45.667 33.333 C 45.667 33.111,45.778 33.000,46.000 33.000 C 46.222 33.000,46.333 32.889,46.333 32.667 C 46.333 32.368,46.506 32.255,46.875 32.314 C 46.944 32.324,46.991 32.277,46.980 32.208 C 46.927 31.870,47.030 31.698,47.333 31.618 C 47.517 31.570,47.667 31.420,47.667 31.285 C 47.667 31.150,47.817 31.000,48.000 30.952 C 48.255 30.885,48.333 30.724,48.333 30.266 C 48.333 29.778,48.395 29.667,48.667 29.667 C 48.889 29.667,49.000 29.556,49.000 29.333 C 49.000 29.035,49.173 28.922,49.542 28.980 C 49.610 28.991,49.658 28.944,49.647 28.875 C 49.592 28.526,49.693 28.333,49.932 28.333 C 50.078 28.333,50.235 28.190,50.281 28.015 C 50.327 27.841,50.507 27.660,50.682 27.614 C 50.920 27.552,51.000 27.381,51.000 26.932 C 51.000 26.444,51.062 26.333,51.333 26.333 C 51.556 26.333,51.667 26.222,51.667 26.000 C 51.667 25.702,51.840 25.589,52.208 25.647 C 52.277 25.658,52.324 25.610,52.314 25.542 C 52.258 25.192,52.360 25.000,52.599 25.000 C 52.745 25.000,52.902 24.857,52.948 24.682 C 52.993 24.507,53.174 24.327,53.349 24.281 C 53.587 24.219,53.667 24.048,53.667 23.599 C 53.667 23.111,53.729 23.000,54.000 23.000 C 54.222 23.000,54.333 22.889,54.333 22.667 C 54.333 22.368,54.506 22.255,54.875 22.314 C 54.944 22.324,54.991 22.277,54.980 22.208 C 54.927 21.870,55.030 21.698,55.333 21.618 C 55.517 21.570,55.667 21.420,55.667 21.285 C 55.667 21.150,55.817 21.000,56.000 20.952 C 56.255 20.885,56.333 20.724,56.333 20.266 C 56.333 19.778,56.395 19.667,56.667 19.667 C 56.889 19.667,57.000 19.556,57.000 19.333 C 57.000 19.035,57.173 18.922,57.542 18.980 C 57.610 18.991,57.658 18.944,57.647 18.875 C 57.593 18.536,57.696 18.364,58.000 18.285 C 58.183 18.237,58.333 18.087,58.333 17.952 C 58.333 17.816,58.483 17.666,58.667 17.618 C 58.922 17.552,59.000 17.391,59.000 16.932 C 59.000 16.444,59.062 16.333,59.333 16.333 C 59.556 16.333,59.667 16.222,59.667 16.000 C 59.667 15.702,59.840 15.589,60.208 15.647 C 60.277 15.658,60.324 15.610,60.314 15.542 C 60.260 15.203,60.363 15.031,60.667 14.952 C 60.850 14.904,61.000 14.754,61.000 14.618 C 61.000 14.483,61.150 14.333,61.333 14.285 C 61.589 14.218,61.667 14.058,61.667 13.599 C 61.667 13.270,61.742 13.000,61.833 13.000 C 61.925 13.000,62.000 12.921,62.000 12.823 C 62.000 12.726,61.906 12.703,61.792 12.772 C 61.650 12.857,61.657 12.807,61.812 12.615 C 62.006 12.376,62.006 12.290,61.812 12.051 C 61.657 11.860,61.650 11.809,61.792 11.895 C 61.906 11.963,62.000 11.940,62.000 11.843 C 62.000 11.746,61.930 11.667,61.843 11.667 C 61.757 11.667,61.664 11.385,61.635 11.042 L 61.583 10.417 60.642 10.367 C 59.873 10.327,59.686 10.258,59.616 9.992 C 59.543 9.711,59.382 9.667,58.432 9.667 C 57.770 9.667,57.333 9.597,57.333 9.490 C 57.333 9.393,57.258 9.360,57.167 9.417 C 56.895 9.584,56.977 9.393,57.282 9.145 C 57.474 8.990,57.524 8.983,57.439 9.125 C 57.370 9.240,57.393 9.333,57.490 9.333 C 57.587 9.333,57.667 9.108,57.667 8.833 C 57.667 8.444,57.741 8.333,58.000 8.333 C 58.222 8.333,58.333 8.222,58.333 8.000 C 58.333 7.778,58.444 7.667,58.667 7.667 C 58.889 7.667,59.000 7.556,59.000 7.333 C 59.000 7.139,59.111 7.000,59.266 7.000 C 59.412 7.000,59.569 6.857,59.614 6.682 C 59.660 6.507,59.841 6.327,60.015 6.281 C 60.254 6.219,60.333 6.048,60.333 5.599 C 60.333 5.111,60.395 5.000,60.667 5.000 C 60.889 5.000,61.000 4.889,61.000 4.667 C 61.000 4.444,61.111 4.333,61.333 4.333 C 61.574 4.333,61.667 4.222,61.667 3.935 C 61.667 3.658,61.755 3.544,61.958 3.560 C 62.212 3.580,62.250 3.422,62.250 2.333 L 62.250 1.083 61.333 1.031 C 60.829 1.003,60.392 0.909,60.361 0.823 C 60.331 0.737,60.232 0.667,60.143 0.667 C 60.054 0.667,60.027 0.742,60.083 0.833 C 60.251 1.105,60.060 1.023,59.812 0.718 C 59.657 0.526,59.650 0.476,59.792 0.561 C 59.906 0.630,60.000 0.614,60.000 0.526 C 60.000 0.432,59.083 0.356,57.792 0.344 C 56.537 0.332,55.559 0.253,55.528 0.161 C 55.427 -0.132,49.720 -0.046,49.606 0.252 M62.071 12.333 C 62.071 12.517,62.130 12.667,62.202 12.667 C 62.274 12.667,62.333 12.517,62.333 12.333 C 62.333 12.150,62.274 12.000,62.202 12.000 C 62.130 12.000,62.071 12.150,62.071 12.333 M14.333 37.130 C 14.333 38.402,14.377 38.624,14.667 38.833 C 14.850 38.965,15.000 39.245,15.000 39.455 C 15.000 39.665,15.150 39.965,15.333 40.122 C 15.592 40.344,15.667 40.614,15.667 41.333 C 15.667 42.053,15.592 42.323,15.333 42.545 C 15.096 42.748,15.000 43.036,15.000 43.545 C 15.000 44.054,14.910 44.325,14.686 44.486 C 14.139 44.881,14.175 47.667,14.727 47.667 C 15.008 47.667,15.123 47.755,15.106 47.958 C 15.094 48.119,15.196 48.250,15.333 48.250 C 15.471 48.250,15.624 48.400,15.673 48.583 C 15.739 48.827,15.930 48.931,16.382 48.968 C 16.865 49.009,17.000 49.091,17.000 49.343 C 17.000 49.543,17.114 49.667,17.299 49.667 C 17.464 49.667,17.783 49.888,18.008 50.160 C 18.390 50.620,18.812 50.870,18.583 50.500 C 18.416 50.229,18.607 50.310,18.855 50.615 C 19.010 50.807,19.017 50.857,18.875 50.772 C 18.760 50.703,18.667 50.727,18.667 50.825 C 18.667 50.935,18.972 50.983,19.458 50.948 C 20.078 50.905,20.245 50.832,20.227 50.613 C 20.211 50.423,20.331 50.333,20.602 50.333 C 20.889 50.333,21.000 50.240,21.000 50.000 C 21.000 49.741,21.111 49.667,21.500 49.667 C 21.775 49.667,22.000 49.587,22.000 49.490 C 22.000 49.393,21.906 49.370,21.792 49.439 C 21.650 49.524,21.657 49.474,21.812 49.282 C 22.060 48.977,22.251 48.895,22.083 49.167 C 22.027 49.258,22.060 49.333,22.157 49.333 C 22.254 49.333,22.333 49.267,22.333 49.186 C 22.333 49.105,22.483 49.000,22.667 48.952 C 22.859 48.902,23.000 48.724,23.000 48.534 C 23.000 48.322,23.104 48.212,23.292 48.227 C 23.475 48.241,23.575 48.141,23.560 47.958 C 23.540 47.700,23.802 47.578,24.221 47.651 C 24.296 47.664,24.320 47.613,24.273 47.538 C 24.055 47.184,24.507 46.998,25.659 46.967 C 26.672 46.941,26.895 46.885,26.959 46.640 C 27.025 46.388,27.269 46.338,28.643 46.297 L 30.250 46.250 30.265 45.750 C 30.273 45.464,30.131 45.078,29.932 44.848 C 29.740 44.627,29.677 44.500,29.792 44.566 C 29.906 44.632,30.000 44.607,30.000 44.510 C 30.000 44.413,29.784 44.333,29.519 44.333 C 29.185 44.333,29.013 44.236,28.955 44.011 C 28.893 43.776,28.696 43.675,28.227 43.636 C 27.794 43.601,27.581 43.502,27.576 43.333 C 27.572 43.196,27.476 43.103,27.364 43.126 C 27.251 43.150,27.088 42.981,27.000 42.751 C 26.872 42.414,26.728 42.333,26.254 42.333 C 25.720 42.333,25.581 42.209,25.647 41.792 C 25.658 41.723,25.610 41.676,25.542 41.686 C 25.203 41.740,25.031 41.637,24.952 41.333 C 24.886 41.081,24.724 41.000,24.285 41.000 C 23.852 41.000,23.684 40.918,23.621 40.678 C 23.560 40.443,23.363 40.341,22.894 40.303 C 22.461 40.267,22.248 40.168,22.242 40.000 C 22.238 39.862,22.143 39.769,22.030 39.793 C 21.918 39.816,21.755 39.648,21.667 39.418 C 21.539 39.081,21.395 39.000,20.921 39.000 C 20.387 39.000,20.248 38.876,20.314 38.458 C 20.324 38.390,20.277 38.342,20.208 38.353 C 19.870 38.407,19.698 38.304,19.618 38.000 C 19.550 37.737,19.391 37.667,18.867 37.667 C 18.345 37.667,18.209 37.606,18.227 37.383 C 18.244 37.176,18.097 37.086,17.680 37.050 C 17.066 36.996,16.921 36.913,16.909 36.611 C 16.905 36.504,16.810 36.436,16.697 36.460 C 16.585 36.483,16.421 36.314,16.334 36.085 C 16.191 35.708,16.084 35.667,15.254 35.667 L 14.333 35.667 14.333 37.130 M12.000 48.510 C 12.000 48.607,12.075 48.640,12.167 48.583 C 12.438 48.416,12.357 48.607,12.051 48.855 C 11.860 49.010,11.809 49.017,11.895 48.875 C 11.963 48.760,11.940 48.667,11.843 48.667 C 11.746 48.667,11.667 48.742,11.667 48.833 C 11.667 48.925,11.397 49.000,11.068 49.000 C 10.615 49.000,10.448 49.079,10.384 49.324 C 10.323 49.557,10.128 49.663,9.691 49.699 C 9.120 49.747,9.080 49.787,9.032 50.375 C 8.991 50.865,8.910 51.000,8.657 51.000 C 8.392 51.000,8.333 51.118,8.333 51.647 C 8.333 52.154,8.261 52.313,8.000 52.382 C 7.717 52.456,7.667 52.609,7.667 53.401 C 7.667 54.222,7.627 54.333,7.333 54.333 C 7.051 54.333,7.000 54.444,7.000 55.065 C 7.000 55.659,6.945 55.792,6.708 55.773 C 6.427 55.751,6.395 55.827,6.353 56.606 C 6.342 56.802,6.194 56.998,6.022 57.042 C 5.772 57.108,5.707 57.295,5.691 58.006 C 5.677 58.657,5.584 58.969,5.336 59.200 C 5.151 59.372,5.000 59.689,5.000 59.904 C 5.000 60.154,4.880 60.326,4.667 60.382 C 4.383 60.456,4.333 60.609,4.333 61.401 C 4.333 62.222,4.294 62.333,4.000 62.333 C 3.717 62.333,3.667 62.444,3.667 63.065 C 3.667 63.659,3.612 63.792,3.375 63.773 C 3.094 63.751,3.061 63.827,3.019 64.606 C 3.008 64.806,2.860 64.998,2.679 65.045 C 2.365 65.127,2.169 67.678,2.479 67.640 C 3.015 67.574,3.118 67.691,3.053 68.286 C 2.979 68.955,2.910 69.079,2.611 69.091 C 2.504 69.095,2.436 69.190,2.460 69.303 C 2.483 69.415,2.314 69.579,2.085 69.666 C 1.748 69.794,1.667 69.939,1.667 70.413 C 1.667 70.889,1.604 71.000,1.333 71.000 C 1.118 71.000,1.000 71.111,1.000 71.314 C 1.000 71.488,0.851 71.667,0.667 71.715 C 0.411 71.782,0.333 71.942,0.333 72.401 C 0.333 72.730,0.258 73.000,0.167 73.000 C 0.075 73.000,0.000 73.375,0.000 73.833 L 0.000 74.667 0.583 74.667 C 0.904 74.667,1.167 74.592,1.167 74.500 C 1.167 74.408,1.354 74.333,1.583 74.333 C 1.813 74.333,2.000 74.254,2.000 74.157 C 2.000 74.060,1.906 74.037,1.792 74.105 C 1.650 74.191,1.657 74.140,1.812 73.949 C 2.060 73.643,2.251 73.562,2.083 73.833 C 1.930 74.081,2.156 74.035,2.429 73.762 C 2.722 73.468,2.740 73.269,2.458 73.439 C 2.317 73.524,2.323 73.474,2.479 73.282 C 2.726 72.977,2.918 72.895,2.750 73.167 C 2.693 73.258,2.726 73.333,2.823 73.333 C 2.921 73.333,3.000 73.258,3.000 73.167 C 3.000 73.075,3.120 73.000,3.266 73.000 C 3.412 73.000,3.570 72.850,3.618 72.667 C 3.666 72.483,3.816 72.333,3.952 72.333 C 4.087 72.333,4.237 72.183,4.285 72.000 C 4.333 71.817,4.483 71.667,4.618 71.667 C 4.754 71.667,4.904 71.517,4.952 71.333 C 5.000 71.150,5.150 71.000,5.285 71.000 C 5.420 71.000,5.570 70.850,5.618 70.667 C 5.666 70.483,5.816 70.333,5.952 70.333 C 6.087 70.333,6.235 70.190,6.281 70.015 C 6.327 69.841,6.507 69.660,6.682 69.614 C 6.857 69.569,7.000 69.420,7.000 69.285 C 7.000 69.150,7.150 69.000,7.333 68.952 C 7.517 68.904,7.667 68.754,7.667 68.618 C 7.667 68.483,7.817 68.333,8.000 68.285 C 8.183 68.237,8.333 68.087,8.333 67.952 C 8.333 67.816,8.483 67.666,8.667 67.618 C 8.850 67.570,9.000 67.420,9.000 67.285 C 9.000 67.150,9.150 67.000,9.333 66.952 C 9.517 66.904,9.667 66.754,9.667 66.618 C 9.667 66.483,9.817 66.333,10.000 66.285 C 10.192 66.235,10.333 66.058,10.333 65.867 C 10.333 65.655,10.438 65.545,10.625 65.560 C 10.813 65.575,10.917 65.465,10.917 65.250 C 10.917 65.028,11.028 64.917,11.250 64.917 C 11.472 64.917,11.583 64.805,11.584 64.584 C 11.584 64.362,11.695 64.250,11.917 64.250 C 12.139 64.250,12.250 64.139,12.250 63.917 C 12.250 63.695,12.362 63.584,12.584 63.584 C 12.805 63.583,12.917 63.472,12.917 63.250 C 12.917 63.028,13.028 62.917,13.250 62.917 C 13.465 62.917,13.575 62.813,13.560 62.625 C 13.545 62.438,13.655 62.333,13.867 62.333 C 14.058 62.333,14.235 62.192,14.285 62.000 C 14.366 61.692,14.541 61.591,14.887 61.651 C 14.963 61.664,14.981 61.604,14.928 61.518 C 14.793 61.300,15.319 60.805,15.539 60.941 C 15.640 61.003,15.670 60.974,15.608 60.873 C 15.464 60.640,15.973 60.130,16.206 60.274 C 16.307 60.337,16.337 60.307,16.274 60.206 C 16.130 59.973,16.640 59.464,16.873 59.608 C 16.974 59.670,17.003 59.640,16.941 59.539 C 16.797 59.306,17.306 58.797,17.539 58.941 C 17.640 59.003,17.670 58.974,17.608 58.873 C 17.482 58.669,17.959 58.122,18.156 58.243 C 18.227 58.287,18.300 57.744,18.318 57.037 C 18.336 56.329,18.422 55.725,18.509 55.694 C 18.596 55.664,18.667 55.566,18.667 55.476 C 18.667 55.387,18.573 55.368,18.458 55.435 C 18.344 55.502,18.397 55.390,18.577 55.184 C 19.067 54.626,19.157 52.331,18.705 51.893 C 18.530 51.723,18.340 51.452,18.282 51.292 C 18.224 51.131,18.071 51.000,17.941 51.000 C 17.812 51.000,17.668 50.855,17.621 50.678 C 17.560 50.443,17.363 50.341,16.894 50.303 C 16.461 50.267,16.248 50.168,16.242 50.000 C 16.238 49.862,16.143 49.769,16.030 49.793 C 15.918 49.816,15.755 49.648,15.667 49.418 C 15.580 49.188,15.403 49.000,15.274 49.000 C 15.144 49.000,15.000 48.850,14.952 48.667 C 14.853 48.290,12.000 48.138,12.000 48.510 " stroke="none" fill="#8454e4" fill-rule="evenodd"></path><path id="path1" d="M251.000 12.667 C 251.000 12.889,250.889 13.000,250.667 13.000 C 250.444 13.000,250.333 13.111,250.333 13.333 C 250.333 13.527,250.222 13.667,250.068 13.667 C 249.922 13.667,249.765 13.810,249.719 13.985 C 249.673 14.159,249.493 14.340,249.318 14.386 C 249.080 14.448,249.000 14.619,249.000 15.068 C 249.000 15.556,248.938 15.667,248.667 15.667 C 248.444 15.667,248.333 15.778,248.333 16.000 C 248.333 16.222,248.222 16.333,248.000 16.333 C 247.683 16.333,247.667 16.444,247.667 18.662 L 247.667 20.991 245.375 21.037 L 243.083 21.083 243.038 24.708 L 242.993 28.333 245.330 28.333 L 247.667 28.333 247.667 39.165 C 247.667 49.817,247.672 50.001,248.000 50.205 C 248.183 50.320,248.333 50.545,248.333 50.707 C 248.333 50.889,248.460 51.000,248.667 51.000 C 248.921 51.000,249.000 51.111,249.000 51.467 C 249.000 52.059,249.274 52.333,249.867 52.333 C 250.222 52.333,250.333 52.413,250.333 52.667 C 250.333 52.944,250.444 53.000,251.000 53.000 C 251.556 53.000,251.667 53.056,251.667 53.333 C 251.667 53.741,264.397 53.870,264.800 53.467 C 264.942 53.325,265.000 52.319,265.000 50.000 C 265.000 47.681,264.942 46.675,264.800 46.533 C 264.654 46.387,263.311 46.333,259.800 46.333 L 255.000 46.333 255.000 37.336 L 255.000 28.338 260.292 28.294 L 265.583 28.250 265.583 24.667 L 265.583 21.083 260.292 21.039 L 255.000 20.995 255.000 16.664 L 255.000 12.333 253.000 12.333 C 251.111 12.333,251.000 12.352,251.000 12.667 M385.719 12.651 C 385.673 12.826,385.493 13.007,385.318 13.052 C 385.080 13.115,385.000 13.285,385.000 13.734 C 385.000 14.222,384.938 14.333,384.667 14.333 C 384.444 14.333,384.333 14.444,384.333 14.667 C 384.333 14.889,384.222 15.000,384.000 15.000 C 383.778 15.000,383.667 15.111,383.667 15.333 C 383.667 15.556,383.556 15.667,383.333 15.667 C 383.118 15.667,383.000 15.778,383.000 15.981 C 383.000 16.154,382.851 16.333,382.667 16.382 C 382.354 16.463,382.333 16.609,382.333 18.734 L 382.333 21.000 380.187 21.000 C 377.444 21.000,377.649 20.681,377.705 24.855 L 377.750 28.250 380.042 28.296 L 382.333 28.343 382.333 38.604 C 382.333 48.724,382.338 48.866,382.667 48.952 C 382.942 49.024,383.000 49.179,383.000 49.843 C 383.000 50.430,383.082 50.707,383.303 50.866 C 383.469 50.985,383.654 51.215,383.714 51.375 C 383.774 51.535,383.938 51.667,384.078 51.667 C 384.218 51.667,384.333 51.786,384.333 51.932 C 384.333 52.078,384.476 52.235,384.651 52.281 C 384.826 52.327,385.007 52.507,385.052 52.682 C 385.114 52.918,385.285 53.000,385.715 53.000 C 386.155 53.000,386.315 53.080,386.382 53.335 C 386.468 53.665,386.579 53.670,393.027 53.627 L 399.583 53.583 399.628 49.958 L 399.673 46.333 394.670 46.333 L 389.667 46.333 389.667 37.333 L 389.667 28.333 394.833 28.333 L 400.000 28.333 400.000 24.667 L 400.000 21.000 394.833 21.000 L 389.667 21.000 389.667 16.667 L 389.667 12.333 387.734 12.333 C 385.974 12.333,385.795 12.362,385.719 12.651 M82.382 21.332 C 82.305 21.626,82.156 21.667,81.149 21.667 C 80.183 21.667,79.970 21.719,79.795 22.000 C 79.680 22.183,79.455 22.333,79.293 22.333 C 79.111 22.333,79.000 22.460,79.000 22.667 C 79.000 22.889,78.889 23.000,78.667 23.000 C 78.444 23.000,78.333 23.111,78.333 23.333 C 78.333 23.556,78.222 23.667,78.000 23.667 C 77.785 23.667,77.667 23.778,77.667 23.981 C 77.667 24.154,77.518 24.333,77.333 24.382 C 77.052 24.455,77.000 24.609,77.000 25.361 C 77.000 26.074,76.933 26.295,76.666 26.462 C 76.335 26.668,76.332 26.815,76.374 40.127 L 76.417 53.583 80.042 53.628 L 83.667 53.673 83.667 41.003 L 83.667 28.333 91.003 28.333 L 98.340 28.333 98.295 24.708 L 98.250 21.083 90.360 21.040 C 82.579 20.997,82.468 21.001,82.382 21.332 M107.048 21.333 C 106.975 21.615,106.821 21.667,106.048 21.667 C 105.276 21.667,105.122 21.718,105.048 22.000 C 105.000 22.184,104.821 22.333,104.647 22.333 C 104.444 22.333,104.333 22.451,104.333 22.667 C 104.333 22.889,104.222 23.000,104.000 23.000 C 103.778 23.000,103.667 23.111,103.667 23.333 C 103.667 23.556,103.556 23.667,103.333 23.667 C 103.118 23.667,103.000 23.778,103.000 23.981 C 103.000 24.154,102.851 24.333,102.667 24.382 C 102.383 24.456,102.333 24.609,102.333 25.401 C 102.333 26.222,102.294 26.333,102.000 26.333 C 101.670 26.333,101.667 26.444,101.667 37.599 C 101.667 48.724,101.671 48.866,102.000 48.952 C 102.275 49.024,102.333 49.179,102.333 49.843 C 102.333 50.430,102.415 50.707,102.636 50.866 C 102.802 50.985,102.988 51.215,103.047 51.375 C 103.107 51.535,103.271 51.667,103.411 51.667 C 103.552 51.667,103.667 51.786,103.667 51.932 C 103.667 52.078,103.810 52.235,103.985 52.281 C 104.159 52.327,104.340 52.507,104.386 52.682 C 104.447 52.918,104.618 53.000,105.048 53.000 C 105.488 53.000,105.649 53.081,105.715 53.333 C 105.852 53.859,130.814 53.859,130.952 53.333 C 131.020 53.072,131.179 53.000,131.686 53.000 C 132.222 53.000,132.333 52.943,132.333 52.667 C 132.333 52.413,132.444 52.333,132.800 52.333 C 133.392 52.333,133.667 52.059,133.667 51.467 C 133.667 51.111,133.746 51.000,134.000 51.000 C 134.215 51.000,134.333 50.889,134.333 50.686 C 134.333 50.512,134.482 50.333,134.667 50.285 C 134.996 50.199,135.000 50.058,135.000 37.599 C 135.000 25.111,134.997 25.000,134.667 25.000 C 134.395 25.000,134.333 24.889,134.333 24.401 C 134.333 23.942,134.255 23.782,134.000 23.715 C 133.816 23.667,133.667 23.488,133.667 23.314 C 133.667 23.118,133.549 23.000,133.353 23.000 C 133.179 23.000,133.000 22.851,132.952 22.667 C 132.885 22.411,132.724 22.333,132.266 22.333 C 131.778 22.333,131.667 22.271,131.667 22.000 C 131.667 21.704,131.556 21.667,130.686 21.667 C 129.846 21.667,129.693 21.619,129.618 21.333 C 129.532 21.004,129.391 21.000,118.333 21.000 C 107.276 21.000,107.134 21.004,107.048 21.333 M145.715 21.333 C 145.640 21.619,145.488 21.667,144.647 21.667 C 143.778 21.667,143.667 21.704,143.667 22.000 C 143.667 22.271,143.556 22.333,143.068 22.333 C 142.609 22.333,142.448 22.411,142.382 22.667 C 142.334 22.850,142.184 23.000,142.048 23.000 C 141.913 23.000,141.765 23.143,141.719 23.318 C 141.673 23.493,141.493 23.673,141.318 23.719 C 141.080 23.781,141.000 23.952,141.000 24.401 C 141.000 24.889,140.938 25.000,140.667 25.000 C 140.336 25.000,140.333 25.111,140.333 37.499 C 140.333 49.817,140.338 50.000,140.667 50.205 C 140.866 50.330,141.000 50.594,141.000 50.864 C 141.000 51.112,141.136 51.412,141.303 51.532 C 141.469 51.652,141.654 51.881,141.714 52.042 C 141.789 52.244,142.003 52.333,142.411 52.333 C 142.889 52.333,143.000 52.396,143.000 52.667 C 143.000 52.882,143.111 53.000,143.314 53.000 C 143.488 53.000,143.667 53.149,143.715 53.333 C 143.801 53.663,143.942 53.667,156.401 53.667 L 169.000 53.667 169.000 50.200 C 169.000 47.726,168.943 46.676,168.800 46.533 C 168.649 46.382,166.052 46.333,158.133 46.333 L 147.667 46.333 147.667 37.333 L 147.667 28.333 158.333 28.333 L 169.000 28.333 169.000 25.000 L 169.000 21.667 159.353 21.667 C 149.846 21.667,149.704 21.662,149.618 21.333 C 149.538 21.025,149.391 21.000,147.667 21.000 C 145.942 21.000,145.796 21.025,145.715 21.333 M174.444 21.111 C 174.383 21.172,174.333 28.522,174.333 37.444 L 174.333 53.667 177.800 53.667 C 180.274 53.667,181.324 53.609,181.467 53.467 C 181.615 53.318,181.667 51.681,181.667 47.133 L 181.667 41.000 182.565 41.000 L 183.463 41.000 189.792 47.333 L 196.120 53.667 200.894 53.667 L 205.667 53.667 205.667 52.843 C 205.667 52.238,205.586 51.961,205.364 51.801 C 205.198 51.681,205.012 51.452,204.953 51.292 C 204.893 51.131,204.738 51.000,204.608 51.000 C 204.478 51.000,204.333 50.850,204.285 50.667 C 204.237 50.483,204.087 50.333,203.952 50.333 C 203.816 50.333,203.666 50.183,203.618 50.000 C 203.570 49.817,203.420 49.667,203.285 49.667 C 203.150 49.667,203.000 49.517,202.952 49.333 C 202.904 49.150,202.754 49.000,202.618 49.000 C 202.483 49.000,202.333 48.850,202.285 48.667 C 202.237 48.483,202.087 48.333,201.952 48.333 C 201.816 48.333,201.666 48.183,201.618 48.000 C 201.570 47.817,201.420 47.667,201.285 47.667 C 201.150 47.667,201.000 47.517,200.952 47.333 C 200.904 47.150,200.754 47.000,200.618 47.000 C 200.483 47.000,200.333 46.850,200.285 46.667 C 200.237 46.483,200.087 46.333,199.952 46.333 C 199.816 46.333,199.666 46.183,199.618 46.000 C 199.570 45.817,199.420 45.667,199.285 45.667 C 199.150 45.667,199.000 45.517,198.952 45.333 C 198.904 45.150,198.754 45.000,198.618 45.000 C 198.483 45.000,198.333 44.850,198.285 44.667 C 198.237 44.483,198.087 44.333,197.952 44.333 C 197.816 44.333,197.666 44.183,197.618 44.000 C 197.570 43.817,197.420 43.667,197.285 43.667 C 197.150 43.667,197.000 43.517,196.952 43.333 C 196.904 43.150,196.754 43.000,196.618 43.000 C 196.483 43.000,196.333 42.850,196.285 42.667 C 196.237 42.483,196.087 42.333,195.952 42.333 C 195.816 42.333,195.666 42.183,195.618 42.000 C 195.570 41.817,195.420 41.667,195.285 41.667 C 195.150 41.667,195.000 41.517,194.952 41.333 C 194.904 41.150,194.754 41.000,194.618 41.000 C 194.483 41.000,194.333 40.850,194.285 40.667 C 194.237 40.483,194.087 40.333,193.952 40.333 C 193.816 40.333,193.666 40.183,193.618 40.000 C 193.570 39.817,193.420 39.667,193.285 39.667 C 193.150 39.667,193.000 39.517,192.952 39.333 C 192.904 39.150,192.754 39.000,192.618 39.000 C 192.483 39.000,192.333 38.850,192.285 38.667 C 192.237 38.483,192.087 38.333,191.952 38.333 C 191.816 38.333,191.666 38.183,191.618 38.000 C 191.570 37.817,191.420 37.667,191.285 37.667 C 191.150 37.667,191.000 37.517,190.952 37.333 C 190.904 37.150,190.745 37.000,190.599 37.000 C 190.444 37.000,190.333 36.861,190.333 36.667 C 190.333 36.444,190.444 36.333,190.667 36.333 C 190.889 36.333,191.000 36.222,191.000 36.000 C 191.000 35.778,191.111 35.667,191.333 35.667 C 191.556 35.667,191.667 35.556,191.667 35.333 C 191.667 35.111,191.778 35.000,192.000 35.000 C 192.222 35.000,192.333 34.889,192.333 34.667 C 192.333 34.444,192.444 34.333,192.667 34.333 C 192.889 34.333,193.000 34.222,193.000 34.000 C 193.000 33.778,193.111 33.667,193.333 33.667 C 193.556 33.667,193.667 33.556,193.667 33.333 C 193.667 33.111,193.778 33.000,194.000 33.000 C 194.222 33.000,194.333 32.889,194.333 32.667 C 194.333 32.444,194.444 32.333,194.667 32.333 C 194.889 32.333,195.000 32.222,195.000 32.000 C 195.000 31.806,195.111 31.667,195.266 31.667 C 195.412 31.667,195.569 31.524,195.614 31.349 C 195.660 31.174,195.841 30.993,196.015 30.948 C 196.190 30.902,196.333 30.754,196.333 30.618 C 196.333 30.483,196.483 30.333,196.667 30.285 C 196.850 30.237,197.000 30.087,197.000 29.952 C 197.000 29.816,197.150 29.666,197.333 29.618 C 197.517 29.570,197.667 29.420,197.667 29.285 C 197.667 29.150,197.817 29.000,198.000 28.952 C 198.183 28.904,198.333 28.754,198.333 28.618 C 198.333 28.483,198.483 28.333,198.667 28.285 C 198.850 28.237,199.000 28.087,199.000 27.952 C 199.000 27.816,199.150 27.666,199.333 27.618 C 199.517 27.570,199.667 27.420,199.667 27.285 C 199.667 27.150,199.817 27.000,200.000 26.952 C 200.183 26.904,200.333 26.754,200.333 26.618 C 200.333 26.483,200.483 26.333,200.667 26.285 C 200.850 26.237,201.000 26.087,201.000 25.952 C 201.000 25.816,201.150 25.666,201.333 25.618 C 201.517 25.570,201.667 25.420,201.667 25.285 C 201.667 25.150,201.817 25.000,202.000 24.952 C 202.183 24.904,202.333 24.754,202.333 24.618 C 202.333 24.483,202.483 24.333,202.667 24.285 C 202.850 24.237,203.000 24.087,203.000 23.952 C 203.000 23.816,203.150 23.666,203.333 23.618 C 203.517 23.570,203.667 23.420,203.667 23.285 C 203.667 23.150,203.817 23.000,204.000 22.952 C 204.388 22.850,204.486 21.553,204.133 21.200 C 203.735 20.801,195.155 20.927,195.048 21.333 C 195.000 21.518,194.821 21.667,194.647 21.667 C 194.444 21.667,194.333 21.785,194.333 22.000 C 194.333 22.222,194.222 22.333,194.000 22.333 C 193.778 22.333,193.667 22.444,193.667 22.667 C 193.667 22.889,193.556 23.000,193.333 23.000 C 193.111 23.000,193.000 23.111,193.000 23.333 C 193.000 23.556,192.889 23.667,192.667 23.667 C 192.444 23.667,192.333 23.778,192.333 24.000 C 192.333 24.222,192.222 24.333,192.000 24.333 C 191.778 24.333,191.667 24.444,191.667 24.667 C 191.667 24.889,191.556 25.000,191.333 25.000 C 191.111 25.000,191.000 25.111,191.000 25.333 C 191.000 25.556,190.889 25.667,190.667 25.667 C 190.444 25.667,190.333 25.778,190.333 26.000 C 190.333 26.222,190.222 26.333,190.000 26.333 C 189.778 26.333,189.667 26.444,189.667 26.667 C 189.667 26.889,189.556 27.000,189.333 27.000 C 189.111 27.000,189.000 27.111,189.000 27.333 C 189.000 27.556,188.889 27.667,188.667 27.667 C 188.451 27.667,188.333 27.778,188.333 27.981 C 188.333 28.154,188.184 28.333,188.000 28.382 C 187.817 28.430,187.667 28.580,187.667 28.715 C 187.667 28.850,187.517 29.000,187.333 29.048 C 187.150 29.096,187.000 29.246,187.000 29.382 C 187.000 29.517,186.850 29.667,186.667 29.715 C 186.483 29.763,186.333 29.913,186.333 30.048 C 186.333 30.184,186.183 30.334,186.000 30.382 C 185.817 30.430,185.667 30.580,185.667 30.715 C 185.667 30.850,185.517 31.000,185.333 31.048 C 185.150 31.096,185.000 31.255,185.000 31.401 C 185.000 31.547,184.880 31.667,184.734 31.667 C 184.588 31.667,184.430 31.817,184.382 32.000 C 184.334 32.183,184.184 32.333,184.048 32.333 C 183.913 32.333,183.763 32.483,183.715 32.667 C 183.667 32.850,183.517 33.000,183.382 33.000 C 183.246 33.000,183.096 33.150,183.048 33.333 C 182.980 33.594,182.821 33.667,182.314 33.667 L 181.667 33.667 181.667 27.734 C 181.667 22.038,181.654 21.799,181.349 21.719 C 181.174 21.673,180.993 21.493,180.948 21.318 C 180.863 20.995,174.755 20.801,174.444 21.111 M211.128 21.333 C 210.967 21.591,210.739 21.667,210.128 21.667 C 209.517 21.667,209.289 21.743,209.128 22.000 C 209.013 22.183,208.788 22.333,208.627 22.333 C 208.444 22.333,208.333 22.460,208.333 22.667 C 208.333 22.889,208.222 23.000,208.000 23.000 C 207.785 23.000,207.667 23.111,207.667 23.314 C 207.667 23.488,207.518 23.667,207.333 23.715 C 207.078 23.782,207.000 23.942,207.000 24.401 C 207.000 24.889,206.938 25.000,206.667 25.000 C 206.336 25.000,206.333 25.111,206.333 37.599 C 206.333 50.058,206.337 50.199,206.667 50.285 C 206.893 50.344,207.001 50.513,207.002 50.811 C 207.004 51.394,207.966 52.333,208.559 52.333 C 208.889 52.333,209.000 52.417,209.000 52.667 C 209.000 52.944,209.111 53.000,209.667 53.000 C 210.222 53.000,210.333 53.056,210.333 53.333 C 210.333 53.742,239.060 53.874,239.467 53.467 C 239.749 53.184,239.749 46.816,239.467 46.533 C 239.315 46.381,236.200 46.333,226.467 46.333 L 213.667 46.333 213.667 43.668 L 213.667 41.002 226.625 40.959 L 239.583 40.917 239.627 33.693 C 239.670 26.579,239.665 26.468,239.335 26.382 C 239.051 26.308,239.000 26.156,239.000 25.382 C 239.000 24.609,238.949 24.455,238.667 24.382 C 238.482 24.333,238.333 24.154,238.333 23.981 C 238.333 23.778,238.215 23.667,238.000 23.667 C 237.778 23.667,237.667 23.556,237.667 23.333 C 237.667 23.111,237.556 23.000,237.333 23.000 C 237.111 23.000,237.000 22.889,237.000 22.667 C 237.000 22.451,236.889 22.333,236.686 22.333 C 236.512 22.333,236.333 22.184,236.285 22.000 C 236.212 21.719,236.058 21.667,235.306 21.667 C 234.594 21.667,234.371 21.599,234.205 21.333 C 234.000 21.005,233.817 21.000,222.667 21.000 C 211.517 21.000,211.333 21.005,211.128 21.333 M274.382 21.333 C 274.307 21.619,274.154 21.667,273.314 21.667 C 272.444 21.667,272.333 21.704,272.333 22.000 C 272.333 22.258,272.222 22.333,271.843 22.333 C 271.560 22.333,271.260 22.461,271.134 22.636 C 271.015 22.802,270.785 22.988,270.625 23.047 C 270.423 23.123,270.333 23.337,270.333 23.745 C 270.333 24.222,270.270 24.333,270.000 24.333 C 269.722 24.333,269.667 24.444,269.667 25.000 C 269.667 25.556,269.611 25.667,269.333 25.667 C 269.007 25.667,269.000 25.778,269.000 31.266 C 269.000 36.724,269.008 36.867,269.333 36.952 C 269.586 37.018,269.667 37.179,269.667 37.618 C 269.667 38.058,269.747 38.219,270.000 38.285 C 270.184 38.333,270.333 38.512,270.333 38.686 C 270.333 38.889,270.451 39.000,270.667 39.000 C 270.889 39.000,271.000 39.111,271.000 39.333 C 271.000 39.549,271.111 39.667,271.314 39.667 C 271.488 39.667,271.667 39.816,271.715 40.000 C 271.781 40.253,271.942 40.333,272.382 40.333 C 272.821 40.333,272.982 40.414,273.048 40.667 C 273.134 40.995,273.276 41.000,281.734 41.000 L 290.333 41.000 290.333 43.665 L 290.333 46.331 279.708 46.374 L 269.083 46.417 269.083 50.000 L 269.083 53.583 281.540 53.626 C 293.852 53.668,293.998 53.665,294.205 53.334 C 294.330 53.134,294.594 53.000,294.864 53.000 C 295.112 53.000,295.412 52.864,295.532 52.697 C 295.652 52.531,295.881 52.346,296.042 52.286 C 296.202 52.226,296.333 52.071,296.333 51.941 C 296.333 51.812,296.483 51.666,296.667 51.618 C 296.919 51.552,297.000 51.391,297.000 50.952 C 297.000 50.512,297.081 50.351,297.333 50.285 C 297.659 50.200,297.667 50.058,297.667 43.767 C 297.667 37.517,297.657 37.330,297.333 37.128 C 297.150 37.013,297.000 36.788,297.000 36.627 C 297.000 36.444,296.874 36.333,296.667 36.333 C 296.444 36.333,296.333 36.222,296.333 36.000 C 296.333 35.778,296.222 35.667,296.000 35.667 C 295.778 35.667,295.667 35.556,295.667 35.333 C 295.667 35.118,295.556 35.000,295.353 35.000 C 295.179 35.000,295.000 34.851,294.952 34.667 C 294.878 34.386,294.724 34.333,293.972 34.333 C 293.261 34.333,293.038 34.266,292.872 34.000 C 292.668 33.674,292.483 33.667,284.499 33.667 L 276.333 33.667 276.333 31.000 L 276.333 28.333 287.000 28.333 L 297.667 28.333 297.667 25.000 L 297.667 21.667 290.353 21.667 C 283.179 21.667,283.037 21.660,282.952 21.333 C 282.867 21.011,282.724 21.000,278.667 21.000 C 274.609 21.000,274.466 21.011,274.382 21.333 M308.461 21.333 C 308.292 21.604,308.073 21.667,307.293 21.667 C 306.444 21.667,306.333 21.705,306.333 22.000 C 306.333 22.271,306.222 22.333,305.734 22.333 C 305.276 22.333,305.115 22.411,305.048 22.667 C 305.000 22.850,304.850 23.000,304.715 23.000 C 304.580 23.000,304.431 23.143,304.386 23.318 C 304.340 23.493,304.159 23.673,303.985 23.719 C 303.749 23.781,303.667 23.952,303.667 24.382 C 303.667 24.821,303.586 24.982,303.333 25.048 C 303.004 25.134,303.000 25.276,303.000 37.566 C 303.000 49.817,303.005 50.000,303.333 50.205 C 303.517 50.320,303.667 50.545,303.667 50.707 C 303.667 50.889,303.793 51.000,304.000 51.000 C 304.254 51.000,304.333 51.111,304.333 51.467 C 304.333 52.059,304.608 52.333,305.200 52.333 C 305.556 52.333,305.667 52.413,305.667 52.667 C 305.667 52.944,305.778 53.000,306.333 53.000 C 306.889 53.000,307.000 53.055,307.000 53.334 C 307.000 53.667,307.084 53.668,321.625 53.626 L 336.250 53.583 336.295 50.188 C 336.327 47.824,336.282 46.723,336.150 46.563 C 335.991 46.372,333.827 46.333,323.146 46.333 L 310.333 46.333 310.333 43.668 L 310.333 41.002 323.292 40.959 L 336.250 40.917 336.293 33.461 C 336.336 26.149,336.330 26.001,336.002 25.796 C 335.763 25.646,335.667 25.407,335.667 24.960 C 335.667 24.444,335.608 24.333,335.333 24.333 C 335.111 24.333,335.000 24.222,335.000 24.000 C 335.000 23.778,334.889 23.667,334.667 23.667 C 334.444 23.667,334.333 23.556,334.333 23.333 C 334.333 23.111,334.222 23.000,334.000 23.000 C 333.778 23.000,333.667 22.889,333.667 22.667 C 333.667 22.451,333.556 22.333,333.353 22.333 C 333.179 22.333,333.000 22.184,332.952 22.000 C 332.874 21.704,332.724 21.667,331.618 21.667 C 330.512 21.667,330.362 21.629,330.285 21.333 C 330.199 21.004,330.058 21.000,319.434 21.000 C 308.850 21.000,308.666 21.006,308.461 21.333 M363.795 21.333 C 363.590 21.661,363.406 21.667,352.293 21.667 L 341.000 21.667 341.000 25.000 L 341.000 28.333 354.000 28.333 L 367.000 28.333 367.000 31.000 L 367.000 33.667 364.835 33.667 C 362.850 33.667,362.652 33.694,362.461 34.000 C 362.257 34.328,362.073 34.333,351.627 34.333 L 341.000 34.333 341.000 41.832 C 341.000 49.150,341.008 49.336,341.333 49.539 C 341.559 49.680,341.667 49.927,341.667 50.306 C 341.667 50.724,341.750 50.886,342.000 50.952 C 342.184 51.000,342.333 51.179,342.333 51.353 C 342.333 51.556,342.451 51.667,342.667 51.667 C 342.889 51.667,343.000 51.778,343.000 52.000 C 343.000 52.215,343.111 52.333,343.314 52.333 C 343.488 52.333,343.667 52.482,343.715 52.667 C 343.781 52.919,343.942 53.000,344.382 53.000 C 344.821 53.000,344.982 53.081,345.048 53.333 C 345.186 53.859,370.544 53.859,370.872 53.333 C 370.987 53.150,371.212 53.000,371.373 53.000 C 371.556 53.000,371.667 52.874,371.667 52.667 C 371.667 52.444,371.778 52.333,372.000 52.333 C 372.222 52.333,372.333 52.222,372.333 52.000 C 372.333 51.778,372.444 51.667,372.667 51.667 C 372.889 51.667,373.000 51.556,373.000 51.333 C 373.000 51.111,373.111 51.000,373.333 51.000 C 373.611 51.000,373.667 50.889,373.667 50.333 C 373.667 49.778,373.722 49.667,374.000 49.667 C 374.330 49.667,374.333 49.556,374.333 37.501 C 374.333 25.517,374.328 25.333,374.000 25.128 C 373.800 25.003,373.667 24.739,373.667 24.469 C 373.667 24.222,373.530 23.921,373.364 23.801 C 373.198 23.681,373.012 23.452,372.953 23.292 C 372.893 23.131,372.738 23.000,372.608 23.000 C 372.478 23.000,372.333 22.850,372.285 22.667 C 372.218 22.411,372.058 22.333,371.599 22.333 C 371.111 22.333,371.000 22.271,371.000 22.000 C 371.000 21.705,370.889 21.667,370.040 21.667 C 369.261 21.667,369.041 21.604,368.872 21.333 C 368.680 21.026,368.483 21.000,366.333 21.000 C 364.183 21.000,363.987 21.026,363.795 21.333 M127.667 37.333 L 127.667 46.333 118.333 46.333 L 109.000 46.333 109.000 37.333 L 109.000 28.333 118.333 28.333 L 127.667 28.333 127.667 37.333 M232.333 31.000 L 232.333 33.667 223.000 33.667 L 213.667 33.667 213.667 31.000 L 213.667 28.333 223.000 28.333 L 232.333 28.333 232.333 31.000 M329.000 31.000 L 329.000 33.667 319.667 33.667 L 310.333 33.667 310.333 31.000 L 310.333 28.333 319.667 28.333 L 329.000 28.333 329.000 31.000 M367.000 43.667 L 367.000 46.333 357.667 46.333 L 348.333 46.333 348.333 43.667 L 348.333 41.000 357.667 41.000 L 367.000 41.000 367.000 43.667 " stroke="none" fill="#0c0c0c" fill-rule="evenodd"></path><path id="path2" d="M61.821 12.042 C 62.003 12.283,62.003 12.384,61.821 12.625 C 61.612 12.903,61.617 12.903,61.920 12.625 C 62.233 12.338,62.233 12.329,61.920 12.042 C 61.617 11.764,61.612 11.764,61.821 12.042 M14.875 23.966 C 14.973 24.085,15.099 24.123,15.154 24.050 C 15.209 23.976,15.314 23.868,15.388 23.809 C 15.461 23.749,15.336 23.712,15.108 23.725 C 14.790 23.744,14.736 23.800,14.875 23.966 " stroke="none" fill="#8834b0" fill-rule="evenodd"></path><path id="path3" d="" stroke="none" fill="#4c3440" fill-rule="evenodd"></path><path id="path4" d="" stroke="none" fill="#0c3444" fill-rule="evenodd"></path></g></svg>